<?xml version="1.0" encoding="UTF-8" standalone="no"?>
<!-- Created with Inkscape (http://www.inkscape.org/) -->

<svg
   xmlns:dc="http://purl.org/dc/elements/1.1/"
   xmlns:cc="http://creativecommons.org/ns#"
   xmlns:rdf="http://www.w3.org/1999/02/22-rdf-syntax-ns#"
   xmlns:svg="http://www.w3.org/2000/svg"
   xmlns="http://www.w3.org/2000/svg"
   xmlns:sodipodi="http://sodipodi.sourceforge.net/DTD/sodipodi-0.dtd"
   xmlns:inkscape="http://www.inkscape.org/namespaces/inkscape"
   width="100"
   height="100"
   id="svg2998"
   version="1.1"
   inkscape:version="0.48.1 r9760"
   sodipodi:docname="arriva.svg">
  <defs
     id="defs3000">
    <marker
       inkscape:stockid="Arrow1Lstart"
       orient="auto"
       refY="0"
       refX="0"
       id="Arrow1Lstart"
       style="overflow:visible">
      <path
         id="path3809"
         d="M 0,0 5,-5 -12.5,0 5,5 0,0 z"
         style="fill-rule:evenodd;stroke:#000000;stroke-width:1pt;marker-start:none"
         transform="matrix(0.8,0,0,0.8,10,0)"
         inkscape:connector-curvature="0" />
    </marker>
  </defs>
  <sodipodi:namedview
     id="base"
     pagecolor="#ffffff"
     bordercolor="#666666"
     borderopacity="1.0"
     inkscape:pageopacity="0.0"
     inkscape:pageshadow="2"
     inkscape:zoom="3"
     inkscape:cx="-24.690755"
     inkscape:cy="73.979316"
     inkscape:document-units="px"
     inkscape:current-layer="layer1"
     showgrid="false"
     inkscape:window-width="1366"
     inkscape:window-height="712"
     inkscape:window-x="0"
     inkscape:window-y="26"
     inkscape:window-maximized="1" />
  <metadata
     id="metadata3003">
    <rdf:RDF>
      <cc:Work
         rdf:about="">
        <dc:format>image/svg+xml</dc:format>
        <dc:type
           rdf:resource="http://purl.org/dc/dcmitype/StillImage" />
        <dc:title></dc:title>
      </cc:Work>
    </rdf:RDF>
  </metadata>
  <g
     inkscape:label="Layer 1"
     inkscape:groupmode="layer"
     id="layer1"
     transform="translate(0,-952.36218)">
    <rect
       style="fill:#000080;fill-opacity:0;stroke:#018091;stroke-width:5.06285381000000001;stroke-linejoin:round;stroke-miterlimit:4;stroke-opacity:1;stroke-dasharray:none"
       id="rect3006"
       width="94.937141"
       height="94.937149"
       x="2.5314269"
       y="954.89362" />
    <g
       style="font-size:40px;font-style:normal;font-weight:normal;line-height:125%;letter-spacing:0px;word-spacing:0px;fill:#018091;fill-opacity:1;stroke:none;font-family:Sans;-inkscape-font-specification:PT Sans Bold"
       id="text3776">
      <path
         d="m 40.463282,1012.3622 -10.75,0 -2.65,7.75 -6.85,0 12.6,-35.25002 5.05,0 12.6,35.25002 -7.2,0 -2.8,-7.75 m -9,-5.5 7.5,0 -2.6,-7.80002 -1.05,-5.5 -0.25,0 -1.05,5.55 -2.55,7.75002"
         style="font-size:50px;font-variant:normal;font-weight:bold;font-stretch:normal;font-family:PT Sans;-inkscape-font-specification:PT Sans Bold;fill:#018091;fill-opacity:1"
         id="path6892" />
      <path
         d="m 53.486719,985.46218 c 0.766663,-0.1333 1.583329,-0.24996 2.45,-0.35 0.899994,-0.1333 1.783326,-0.2333 2.65,-0.3 0.899991,-0.0666 1.766657,-0.11663 2.6,-0.15 0.833322,-0.0333 1.599988,-0.05 2.3,-0.05 1.633319,4e-5 3.233317,0.15004 4.8,0.45 1.599981,0.30004 3.016646,0.8167 4.25,1.55 1.266643,0.73337 2.266642,1.75003 3,3.05 0.766641,1.2667 1.149974,2.8667 1.15,4.8 -2.6e-5,2.86669 -0.666692,5.20002 -2,7.00002 -1.333356,1.8 -3.116688,3.05 -5.35,3.75 l 2.45,1.55 8,13.35 -7.9,0 -7.95,-13.7 -3.6,-0.65 0,14.35 -6.85,0 0,-34.65002 m 10.5,5.25 c -0.700013,3e-5 -1.400012,0.0167 -2.1,0.05 -0.666677,0.0334 -1.183343,0.10003 -1.55,0.2 l 0,10.15002 2.9,0 c 1.899985,0 3.416651,-0.4333 4.55,-1.30002 1.133315,-0.86664 1.699981,-2.29997 1.7,-4.3 -1.9e-5,-1.49997 -0.466685,-2.66664 -1.4,-3.5 -0.93335,-0.86664 -2.300015,-1.29997 -4.1,-1.3"
         style="font-size:50px;font-variant:normal;font-weight:bold;font-stretch:normal;font-family:PT Sans;-inkscape-font-specification:PT Sans Bold;fill:#018091;fill-opacity:1"
         id="path6894" />
    </g>
  </g>
</svg>
