<?xml version="1.0" encoding="UTF-8" standalone="no"?>
<!-- Created with Inkscape (http://www.inkscape.org/) -->

<svg
   xmlns:dc="http://purl.org/dc/elements/1.1/"
   xmlns:cc="http://creativecommons.org/ns#"
   xmlns:rdf="http://www.w3.org/1999/02/22-rdf-syntax-ns#"
   xmlns:svg="http://www.w3.org/2000/svg"
   xmlns="http://www.w3.org/2000/svg"
   xmlns:sodipodi="http://sodipodi.sourceforge.net/DTD/sodipodi-0.dtd"
   xmlns:inkscape="http://www.inkscape.org/namespaces/inkscape"
   width="100"
   height="100"
   id="svg2998"
   version="1.1"
   inkscape:version="0.48.1 r9760"
   sodipodi:docname="durchgangszug.svg">
  <defs
     id="defs3000">
    <marker
       inkscape:stockid="Arrow1Lstart"
       orient="auto"
       refY="0"
       refX="0"
       id="Arrow1Lstart"
       style="overflow:visible">
      <path
         id="path3809"
         d="M 0,0 5,-5 -12.5,0 5,5 0,0 z"
         style="fill-rule:evenodd;stroke:#000000;stroke-width:1pt;marker-start:none"
         transform="matrix(0.8,0,0,0.8,10,0)"
         inkscape:connector-curvature="0" />
    </marker>
  </defs>
  <sodipodi:namedview
     id="base"
     pagecolor="#ffffff"
     bordercolor="#666666"
     borderopacity="1.0"
     inkscape:pageopacity="0.0"
     inkscape:pageshadow="2"
     inkscape:zoom="3"
     inkscape:cx="-54.538467"
     inkscape:cy="60.645983"
     inkscape:document-units="px"
     inkscape:current-layer="text3776"
     showgrid="false"
     inkscape:window-width="1366"
     inkscape:window-height="712"
     inkscape:window-x="0"
     inkscape:window-y="26"
     inkscape:window-maximized="1" />
  <metadata
     id="metadata3003">
    <rdf:RDF>
      <cc:Work
         rdf:about="">
        <dc:format>image/svg+xml</dc:format>
        <dc:type
           rdf:resource="http://purl.org/dc/dcmitype/StillImage" />
        <dc:title></dc:title>
      </cc:Work>
    </rdf:RDF>
  </metadata>
  <g
     inkscape:label="Layer 1"
     inkscape:groupmode="layer"
     id="layer1"
     transform="translate(0,-952.36218)">
    <rect
       style="fill:#000080;fill-opacity:0;stroke:#9d740f;stroke-width:5.06285381000000001;stroke-linejoin:round;stroke-miterlimit:4;stroke-opacity:1;stroke-dasharray:none"
       id="rect3006"
       width="94.937141"
       height="94.937149"
       x="2.5314269"
       y="954.89362" />
    <g
       style="font-size:40px;font-style:normal;font-weight:normal;line-height:125%;letter-spacing:0px;word-spacing:0px;fill:#000000;fill-opacity:1;stroke:none;font-family:Sans;-inkscape-font-specification:PT Sans Bold"
       id="text3776">
      <path
         d="m 42.124998,984.83722 c 0.699991,-0.1 1.466657,-0.1833 2.3,-0.25 0.833322,-0.0666 1.599988,-0.11663 2.3,-0.15 0.73332,-0.0333 1.366653,-0.05 1.9,-0.05 0.299985,3e-5 0.716652,3e-5 1.25,0 0.56665,-0.0333 1.183316,-0.05 1.85,-0.05 2.033314,3e-5 3.883312,0.2667 5.55,0.8 1.666642,0.50003 3.083307,1.28337 4.25,2.35 1.199971,1.0667 2.116637,2.43336 2.75,4.1 0.666636,1.66669 0.999969,3.65002 1,5.95 -3.1e-5,1.46669 -0.133364,3.04998 -0.4,4.74998 -0.233364,1.6667 -0.65003,3.35 -1.25,5.05 -0.600029,1.7 -1.433361,3.3334 -2.5,4.9 -1.033359,1.5667 -2.350025,2.95 -3.95,4.15 -1.566688,1.2 -3.466686,2.1667 -5.7,2.9 -2.200015,0.7334 -4.766679,1.1 -7.7,1.1 -0.500009,0 -1.000009,-0.017 -1.5,-0.05 -0.500008,0 -0.850007,0 -1.05,0 -0.666673,-0.033 -1.416672,-0.083 -2.25,-0.15 -0.800004,-0.033 -1.61667,-0.083 -2.45,-0.15 -0.800002,-0.033 -1.400001,-0.083 -1.8,-0.15 l 7.4,-35.04998 m 0.3,29.29998 c 0.133325,0.033 0.333325,0.067 0.6,0.1 0.299991,0 0.616657,0.017 0.95,0.05 0.333323,0 0.64999,0 0.95,0 0.299989,0 0.533322,0 0.7,0 2.33332,0 4.316651,-0.5166 5.95,-1.55 1.633314,-1.0666 2.94998,-2.3833 3.95,-3.95 1.033311,-1.6 1.766644,-3.3166 2.2,-5.15 0.466643,-1.8666 0.699976,-3.6 0.7,-5.19998 -2.4e-5,-2.66664 -0.56669,-4.66664 -1.7,-6 -1.100021,-1.33331 -2.95002,-1.99997 -5.55,-2 -0.666683,3e-5 -1.366682,0.0167 -2.1,0.05 -0.733347,0.0334 -1.300014,0.0834 -1.7,0.15 l -4.95,23.49998"
         style="fill:#9d740f;fill-opacity:1"
         id="path6356" />
    </g>
  </g>
</svg>
