<?xml version="1.0" encoding="UTF-8" standalone="no"?>
<!-- Created with Inkscape (http://www.inkscape.org/) -->

<svg
   xmlns:dc="http://purl.org/dc/elements/1.1/"
   xmlns:cc="http://creativecommons.org/ns#"
   xmlns:rdf="http://www.w3.org/1999/02/22-rdf-syntax-ns#"
   xmlns:svg="http://www.w3.org/2000/svg"
   xmlns="http://www.w3.org/2000/svg"
   xmlns:sodipodi="http://sodipodi.sourceforge.net/DTD/sodipodi-0.dtd"
   xmlns:inkscape="http://www.inkscape.org/namespaces/inkscape"
   width="100"
   height="100"
   id="svg2998"
   version="1.1"
   inkscape:version="0.48.1 r9760"
   sodipodi:docname="ex.svg">
  <defs
     id="defs3000">
    <marker
       inkscape:stockid="Arrow1Lstart"
       orient="auto"
       refY="0"
       refX="0"
       id="Arrow1Lstart"
       style="overflow:visible">
      <path
         id="path3809"
         d="M 0,0 5,-5 -12.5,0 5,5 0,0 z"
         style="fill-rule:evenodd;stroke:#000000;stroke-width:1pt;marker-start:none"
         transform="matrix(0.8,0,0,0.8,10,0)"
         inkscape:connector-curvature="0" />
    </marker>
  </defs>
  <sodipodi:namedview
     id="base"
     pagecolor="#ffffff"
     bordercolor="#666666"
     borderopacity="1.0"
     inkscape:pageopacity="0.0"
     inkscape:pageshadow="2"
     inkscape:zoom="3"
     inkscape:cx="-1.6297137"
     inkscape:cy="60.645983"
     inkscape:document-units="px"
     inkscape:current-layer="layer1"
     showgrid="false"
     inkscape:window-width="1366"
     inkscape:window-height="712"
     inkscape:window-x="0"
     inkscape:window-y="26"
     inkscape:window-maximized="1" />
  <metadata
     id="metadata3003">
    <rdf:RDF>
      <cc:Work
         rdf:about="">
        <dc:format>image/svg+xml</dc:format>
        <dc:type
           rdf:resource="http://purl.org/dc/dcmitype/StillImage" />
        <dc:title></dc:title>
      </cc:Work>
    </rdf:RDF>
  </metadata>
  <g
     inkscape:label="Layer 1"
     inkscape:groupmode="layer"
     id="layer1"
     transform="translate(0,-952.36218)">
    <rect
       style="fill:#000080;fill-opacity:0;stroke:#bc0012;stroke-width:5.06285381000000001;stroke-linejoin:round;stroke-miterlimit:4;stroke-opacity:1;stroke-dasharray:none"
       id="rect3006"
       width="94.937141"
       height="94.937149"
       x="2.5314269"
       y="954.89362" />
    <path
       inkscape:connector-curvature="0"
       id="path4707"
       style="font-size:40px;font-style:normal;font-weight:normal;line-height:125%;letter-spacing:0px;word-spacing:0px;fill:#bc0012;fill-opacity:1;stroke:none;font-family:Sans;-inkscape-font-specification:PT Sans Bold"
       d="m 22.912891,984.86218 20.75,0 0,6.1 -13.9,0 0,8.15 12.65,0 0,6.10002 -12.65,0 0,8.55 14.15,0 0,6.1 -21,0 0,-35.00002" />
    <path
       inkscape:connector-curvature="0"
       id="path4709"
       style="font-size:40px;font-style:normal;font-weight:normal;line-height:125%;letter-spacing:0px;word-spacing:0px;fill:#102c76;fill-opacity:1;stroke:none;font-family:Sans;-inkscape-font-specification:PT Sans Bold"
       d="m 57.23711,1002.0622 -9.75,-17.20002 8.25,0 5.4,10.1 1.2,3.55 1.15,-3.55 5.65,-10.1 7.45,0 -10.1,16.85002 10.6,18.15 -8.15,0 -6.15,-10.8 -1.35,-3.7 -1.3,3.7 -6.2,10.8 -7.45,0 10.75,-17.8" />
  </g>
</svg>
