<?xml version="1.0" encoding="UTF-8" standalone="no"?>
<!-- Created with Inkscape (http://www.inkscape.org/) -->

<svg
   xmlns:dc="http://purl.org/dc/elements/1.1/"
   xmlns:cc="http://creativecommons.org/ns#"
   xmlns:rdf="http://www.w3.org/1999/02/22-rdf-syntax-ns#"
   xmlns:svg="http://www.w3.org/2000/svg"
   xmlns="http://www.w3.org/2000/svg"
   xmlns:sodipodi="http://sodipodi.sourceforge.net/DTD/sodipodi-0.dtd"
   xmlns:inkscape="http://www.inkscape.org/namespaces/inkscape"
   width="100"
   height="100"
   id="svg2998"
   version="1.1"
   inkscape:version="0.48.1 r9760"
   sodipodi:docname="regioekspres.svg">
  <defs
     id="defs3000">
    <marker
       inkscape:stockid="Arrow1Lstart"
       orient="auto"
       refY="0"
       refX="0"
       id="Arrow1Lstart"
       style="overflow:visible">
      <path
         id="path3809"
         d="M 0,0 5,-5 -12.5,0 5,5 0,0 z"
         style="fill-rule:evenodd;stroke:#000000;stroke-width:1pt;marker-start:none"
         transform="matrix(0.8,0,0,0.8,10,0)"
         inkscape:connector-curvature="0" />
    </marker>
  </defs>
  <sodipodi:namedview
     id="base"
     pagecolor="#ffffff"
     bordercolor="#666666"
     borderopacity="1.0"
     inkscape:pageopacity="0.0"
     inkscape:pageshadow="2"
     inkscape:zoom="3"
     inkscape:cx="19.486272"
     inkscape:cy="60.645983"
     inkscape:document-units="px"
     inkscape:current-layer="layer1"
     showgrid="false"
     inkscape:window-width="1366"
     inkscape:window-height="712"
     inkscape:window-x="0"
     inkscape:window-y="26"
     inkscape:window-maximized="1" />
  <metadata
     id="metadata3003">
    <rdf:RDF>
      <cc:Work
         rdf:about="">
        <dc:format>image/svg+xml</dc:format>
        <dc:type
           rdf:resource="http://purl.org/dc/dcmitype/StillImage" />
        <dc:title></dc:title>
      </cc:Work>
    </rdf:RDF>
  </metadata>
  <g
     inkscape:label="Layer 1"
     inkscape:groupmode="layer"
     id="layer1"
     transform="translate(0,-952.36218)">
    <rect
       style="fill:#000080;fill-opacity:0;stroke:#002c65;stroke-width:5.06285381;stroke-linejoin:round;stroke-miterlimit:4;stroke-opacity:1;stroke-dasharray:none"
       id="rect3006"
       width="94.937141"
       height="94.937149"
       x="2.5314269"
       y="954.89362" />
    <g
       style="font-size:40px;font-style:normal;font-weight:normal;line-height:125%;letter-spacing:0px;word-spacing:0px;fill:#000000;fill-opacity:1;stroke:none;font-family:Sans;-inkscape-font-specification:PT Sans Bold"
       id="text3776">
      <path
         d="m 24.635937,985.11221 c 0.766663,-0.1333 1.583328,-0.24997 2.45,-0.35 0.899993,-0.1333 1.783326,-0.2333 2.65,-0.3 0.899991,-0.0666 1.766657,-0.11663 2.6,-0.15 0.833322,-0.0333 1.599987,-0.05 2.3,-0.05 1.633318,3e-5 3.233317,0.15003 4.8,0.45 1.59998,0.30003 3.016646,0.8167 4.25,1.55 1.266643,0.73336 2.266642,1.75003 3,3.05 0.766641,1.26669 1.149974,2.86669 1.15,4.8 -2.6e-5,2.86669 -0.666692,5.20002 -2,6.99999 -1.333356,1.8 -3.116688,3.05 -5.35,3.75 l 2.45,1.55 8,13.35 -7.9,0 -7.95,-13.7 -3.6,-0.65 0,14.35 -6.85,0 0,-34.64999 m 10.5,5.25 c -0.700013,3e-5 -1.400012,0.0167 -2.1,0.05 -0.666678,0.0334 -1.183344,0.10003 -1.55,0.2 l 0,10.14999 2.9,0 c 1.899985,0 3.41665,-0.4333 4.55,-1.29999 1.133315,-0.86665 1.699981,-2.29998 1.7,-4.3 -1.9e-5,-1.49998 -0.466685,-2.66664 -1.4,-3.5 -0.93335,-0.86664 -2.300016,-1.29997 -4.1,-1.3"
         style="fill:#002c65;fill-opacity:1"
         id="path4022" />
      <path
         d="m 74.564062,1017.6122 c -1.000022,0.8 -2.366687,1.4833 -4.1,2.05 -1.700017,0.5333 -3.516682,0.8 -5.45,0.8 -4.033343,0 -6.98334,-1.1667 -8.85,-3.5 -1.86667,-2.3667 -2.800002,-5.6 -2.8,-9.7 -2e-6,-4.4 1.049997,-7.69997 3.15,-9.89999 2.099993,-2.19998 5.04999,-3.29998 8.85,-3.3 1.266651,2e-5 2.499984,0.16669 3.7,0.5 1.199981,0.33336 2.266647,0.88335 3.2,1.65 0.933312,0.76669 1.683311,1.80002 2.25,3.1 0.566643,1.29999 0.849976,2.91669 0.85,4.84999 -2.4e-5,0.7 -0.05002,1.45 -0.15,2.25 -0.06669,0.8 -0.183357,1.6334 -0.35,2.5 l -15,0 c 0.09999,2.1 0.633324,3.6833 1.6,4.75 0.999989,1.0667 2.599987,1.6 4.8,1.6 1.36665,0 2.583316,-0.2 3.65,-0.6 1.09998,-0.4333 1.933313,-0.8667 2.5,-1.3 l 2.15,4.25 m -9.3,-18.34999 c -1.700012,2e-5 -2.966678,0.51668 -3.8,1.54999 -0.800009,1 -1.283342,2.35 -1.45,4.05 l 9.3,0 c 0.133315,-1.8 -0.150018,-3.1833 -0.85,-4.15 -0.666683,-0.96664 -1.733349,-1.44997 -3.2,-1.44999"
         style="fill:#e11010;fill-opacity:1"
         id="path4024" />
    </g>
  </g>
</svg>
