<?xml version="1.0" encoding="UTF-8" standalone="no"?>
<!-- Created with Inkscape (http://www.inkscape.org/) -->

<svg
   xmlns:dc="http://purl.org/dc/elements/1.1/"
   xmlns:cc="http://creativecommons.org/ns#"
   xmlns:rdf="http://www.w3.org/1999/02/22-rdf-syntax-ns#"
   xmlns:svg="http://www.w3.org/2000/svg"
   xmlns="http://www.w3.org/2000/svg"
   xmlns:sodipodi="http://sodipodi.sourceforge.net/DTD/sodipodi-0.dtd"
   xmlns:inkscape="http://www.inkscape.org/namespaces/inkscape"
   width="100"
   height="100"
   id="svg2998"
   version="1.1"
   inkscape:version="0.48.1 r9760"
   sodipodi:docname="wkd.svg">
  <defs
     id="defs3000">
    <marker
       inkscape:stockid="Arrow1Lstart"
       orient="auto"
       refY="0"
       refX="0"
       id="Arrow1Lstart"
       style="overflow:visible">
      <path
         id="path3809"
         d="M 0,0 5,-5 -12.5,0 5,5 0,0 z"
         style="fill-rule:evenodd;stroke:#000000;stroke-width:1pt;marker-start:none"
         transform="matrix(0.8,0,0,0.8,10,0)"
         inkscape:connector-curvature="0" />
    </marker>
  </defs>
  <sodipodi:namedview
     id="base"
     pagecolor="#ffffff"
     bordercolor="#666666"
     borderopacity="1.0"
     inkscape:pageopacity="0.0"
     inkscape:pageshadow="2"
     inkscape:zoom="3"
     inkscape:cx="38.809245"
     inkscape:cy="73.979316"
     inkscape:document-units="px"
     inkscape:current-layer="layer1"
     showgrid="false"
     inkscape:window-width="1366"
     inkscape:window-height="712"
     inkscape:window-x="0"
     inkscape:window-y="26"
     inkscape:window-maximized="1" />
  <metadata
     id="metadata3003">
    <rdf:RDF>
      <cc:Work
         rdf:about="">
        <dc:format>image/svg+xml</dc:format>
        <dc:type
           rdf:resource="http://purl.org/dc/dcmitype/StillImage" />
        <dc:title></dc:title>
      </cc:Work>
    </rdf:RDF>
  </metadata>
  <g
     inkscape:label="Layer 1"
     inkscape:groupmode="layer"
     id="layer1"
     transform="translate(0,-952.36218)">
    <rect
       style="fill:#000080;fill-opacity:0;stroke:#0545cb;stroke-width:5.06285381000000001;stroke-linejoin:round;stroke-miterlimit:4;stroke-opacity:1;stroke-dasharray:none"
       id="rect3006"
       width="94.937141"
       height="94.937149"
       x="2.5314269"
       y="954.89362" />
    <g
       style="font-size:40px;font-style:normal;font-weight:normal;line-height:125%;letter-spacing:0px;word-spacing:0px;fill:#ff190a;fill-opacity:1;stroke:none;font-family:Sans;-inkscape-font-specification:PT Sans Bold"
       id="text3776">
      <path
         d="m 20.090117,1003.9147 0.45,5.67 0.18,0 0.495,-5.76 4.23,-17.23498 3.96,0 4.095,17.32498 0.495,5.67 0.18,0 0.495,-5.76 2.79,-17.23498 5.76,0 -7.065,31.72498 -4.005,0 -4.41,-17.37 -0.585,-4.90498 -0.225,0 -0.54,4.94998 -4.41,17.325 -4.185,0 -7.02,-31.72498 6.255,0 3.06,17.32498"
         style="font-size:45px;font-variant:normal;font-weight:bold;font-stretch:condensed;fill:#ff190a;font-family:PT Sans Narrow;-inkscape-font-specification:PT Sans Narrow Bold Condensed"
         id="path3154" />
      <path
         d="m 52.030976,1004.5897 -1.215,0 0,13.5 -5.67,0 0,-31.49998 5.67,0 0,13.99498 1.125,-0.54 6.615,-13.45498 6.39,0 -7.2,13.275 -2.115,1.66498 2.16,1.71 8.325,14.85 -6.93,0 -7.155,-13.5"
         style="font-size:45px;font-variant:normal;font-weight:bold;font-stretch:condensed;fill:#ff190a;font-family:PT Sans Narrow;-inkscape-font-specification:PT Sans Narrow Bold Condensed"
         id="path3156" />
      <path
         d="m 68.524883,986.58972 c 0.539997,-0.09 1.139997,-0.14997 1.8,-0.18 0.689995,-0.06 1.379994,-0.10497 2.07,-0.135 0.719993,-0.06 1.409992,-0.09 2.07,-0.09 0.659991,-0.03 1.24499,-0.045 1.755,-0.045 2.489987,3e-5 4.559985,0.39003 6.21,1.17 1.679982,0.75003 3.014981,1.83003 4.005,3.24 1.019979,1.38003 1.739978,3.04503 2.16,4.995 0.419977,1.95002 0.629977,4.12502 0.63,6.52498 -2.3e-5,2.19 -0.210023,4.29 -0.63,6.3 -0.390022,1.98 -1.095021,3.735 -2.115,5.265 -1.020019,1.5 -2.400018,2.7 -4.14,3.6 -1.740014,0.9 -3.930012,1.35 -6.57,1.35 -0.390009,0 -0.915009,-0.015 -1.575,-0.045 -0.660007,-0.03 -1.350007,-0.075 -2.07,-0.135 -0.720005,-0.03 -1.410005,-0.075 -2.07,-0.135 -0.660003,-0.03 -1.170003,-0.075 -1.53,-0.135 l 0,-31.54498 m 8.28,4.77 c -0.48001,3e-5 -0.97501,0.015 -1.485,0.045 -0.480009,3e-5 -0.855008,0.03 -1.125,0.09 l 0,21.68998 c 0.08999,0.03 0.239992,0.06 0.45,0.09 0.239991,0 0.479991,0.015 0.72,0.045 0.269991,0 0.50999,0.015 0.72,0.045 0.23999,0 0.40499,0 0.495,0 1.349988,0 2.459987,-0.315 3.33,-0.945 0.869985,-0.63 1.544985,-1.47 2.025,-2.52 0.509984,-1.05 0.854983,-2.25 1.035,-3.6 0.209983,-1.38 0.314983,-2.82 0.315,-4.32 -1.7e-5,-1.38 -0.09002,-2.71496 -0.27,-4.00498 -0.150017,-1.28998 -0.465016,-2.41498 -0.945,-3.375 -0.450015,-0.98997 -1.110015,-1.76997 -1.98,-2.34 -0.840013,-0.59997 -1.935012,-0.89997 -3.285,-0.9"
         style="font-size:45px;font-variant:normal;font-weight:bold;font-stretch:condensed;fill:#ff190a;font-family:PT Sans Narrow;-inkscape-font-specification:PT Sans Narrow Bold Condensed"
         id="path3158" />
    </g>
  </g>
</svg>
