<?xml version="1.0" encoding="UTF-8" standalone="no"?>
<!-- Created with Inkscape (http://www.inkscape.org/) -->

<svg
   xmlns:dc="http://purl.org/dc/elements/1.1/"
   xmlns:cc="http://creativecommons.org/ns#"
   xmlns:rdf="http://www.w3.org/1999/02/22-rdf-syntax-ns#"
   xmlns:svg="http://www.w3.org/2000/svg"
   xmlns="http://www.w3.org/2000/svg"
   xmlns:sodipodi="http://sodipodi.sourceforge.net/DTD/sodipodi-0.dtd"
   xmlns:inkscape="http://www.inkscape.org/namespaces/inkscape"
   width="100"
   height="100"
   id="svg2998"
   version="1.1"
   inkscape:version="0.48.1 r9760"
   sodipodi:docname="eic.svg">
  <defs
     id="defs3000">
    <marker
       inkscape:stockid="Arrow1Lstart"
       orient="auto"
       refY="0"
       refX="0"
       id="Arrow1Lstart"
       style="overflow:visible">
      <path
         id="path3809"
         d="M 0,0 5,-5 -12.5,0 5,5 0,0 z"
         style="fill-rule:evenodd;stroke:#000000;stroke-width:1pt;marker-start:none"
         transform="matrix(0.8,0,0,0.8,10,0)"
         inkscape:connector-curvature="0" />
    </marker>
  </defs>
  <sodipodi:namedview
     id="base"
     pagecolor="#ffffff"
     bordercolor="#666666"
     borderopacity="1.0"
     inkscape:pageopacity="0.0"
     inkscape:pageshadow="2"
     inkscape:zoom="3"
     inkscape:cx="-19.62732"
     inkscape:cy="60.645983"
     inkscape:document-units="px"
     inkscape:current-layer="layer1"
     showgrid="false"
     inkscape:window-width="1366"
     inkscape:window-height="712"
     inkscape:window-x="0"
     inkscape:window-y="26"
     inkscape:window-maximized="1" />
  <metadata
     id="metadata3003">
    <rdf:RDF>
      <cc:Work
         rdf:about="">
        <dc:format>image/svg+xml</dc:format>
        <dc:type
           rdf:resource="http://purl.org/dc/dcmitype/StillImage" />
        <dc:title></dc:title>
      </cc:Work>
    </rdf:RDF>
  </metadata>
  <g
     inkscape:label="Layer 1"
     inkscape:groupmode="layer"
     id="layer1"
     transform="translate(0,-952.36218)">
    <rect
       style="fill:#000080;fill-opacity:0;stroke:#ef7f0b;stroke-width:5.06285381000000001;stroke-linejoin:round;stroke-miterlimit:4;stroke-opacity:1;stroke-dasharray:none"
       id="rect3006"
       width="94.937141"
       height="94.937149"
       x="2.5314269"
       y="954.89362" />
    <path
       inkscape:connector-curvature="0"
       id="path6327"
       style="font-size:40px;font-style:normal;font-weight:normal;line-height:125%;letter-spacing:0px;word-spacing:0px;fill:#6c727a;fill-opacity:1;stroke:none;font-family:Sans;-inkscape-font-specification:PT Sans Bold"
       d="m 14.704297,983.11218 20.75,0 0,6.1 -13.9,0 0,8.15 12.65,0 0,6.10002 -12.65,0 0,8.55 14.15,0 0,6.1 -21,0 0,-35.00002" />
    <path
       inkscape:connector-curvature="0"
       id="path6329"
       style="font-size:40px;font-style:normal;font-weight:normal;line-height:125%;letter-spacing:0px;word-spacing:0px;fill:#ef7f0b;fill-opacity:1;stroke:none;font-family:Sans;-inkscape-font-specification:PT Sans Bold"
       d="m 41.478516,983.11218 6.85,0 0,35.00002 -6.85,0 0,-35.00002" />
    <path
       inkscape:connector-curvature="0"
       id="path6331"
       style="font-size:40px;font-style:normal;font-weight:normal;line-height:125%;letter-spacing:0px;word-spacing:0px;fill:#ef7f0b;fill-opacity:1;stroke:none;font-family:Sans;-inkscape-font-specification:PT Sans Bold"
       d="m 78.736328,1016.6622 c -1.066692,0.7666 -2.433357,1.3166 -4.1,1.65 -1.633354,0.3333 -3.316686,0.5 -5.05,0.5 -2.100015,0 -4.100013,-0.3167 -6,-0.95 -1.866676,-0.6667 -3.516674,-1.7167 -4.95,-3.15 -1.433338,-1.4667 -2.583337,-3.35 -3.45,-5.65 -0.833335,-2.3333 -1.250002,-5.15 -1.25,-8.45 -2e-6,-3.43333 0.466665,-6.29999 1.4,-8.60002 0.966663,-2.3333 2.199995,-4.19997 3.7,-5.6 1.533325,-1.4333 3.233323,-2.44996 5.1,-3.05 1.866653,-0.6333 3.733318,-0.94996 5.6,-0.95 1.999981,4e-5 3.683312,0.13337 5.05,0.4 1.399976,0.2667 2.549975,0.58337 3.45,0.95 l -1.35,5.8 c -0.76669,-0.36664 -1.683356,-0.6333 -2.75,-0.8 -1.033354,-0.16663 -2.300019,-0.24997 -3.8,-0.25 -2.766682,3e-5 -5.000013,0.98336 -6.7,2.95 -1.666676,1.96669 -2.500009,5.01669 -2.5,9.15002 -9e-6,1.8 0.199991,3.45 0.6,4.95 0.39999,1.4667 0.99999,2.7333 1.8,3.8 0.833321,1.0333 1.849987,1.85 3.05,2.45 1.233318,0.5667 2.649983,0.85 4.25,0.85 1.49998,0 2.766645,-0.15 3.8,-0.45 1.03331,-0.3 1.933309,-0.6833 2.7,-1.15 l 1.4,5.6" />
  </g>
</svg>
