<?xml version="1.0" encoding="UTF-8" standalone="no"?>
<!-- Created with Inkscape (http://www.inkscape.org/) -->

<svg
   xmlns:dc="http://purl.org/dc/elements/1.1/"
   xmlns:cc="http://creativecommons.org/ns#"
   xmlns:rdf="http://www.w3.org/1999/02/22-rdf-syntax-ns#"
   xmlns:svg="http://www.w3.org/2000/svg"
   xmlns="http://www.w3.org/2000/svg"
   xmlns:sodipodi="http://sodipodi.sourceforge.net/DTD/sodipodi-0.dtd"
   xmlns:inkscape="http://www.inkscape.org/namespaces/inkscape"
   width="100"
   height="100"
   id="svg2998"
   version="1.1"
   inkscape:version="0.48.1 r9760"
   sodipodi:docname="euronight.svg">
  <defs
     id="defs3000">
    <marker
       inkscape:stockid="Arrow1Lstart"
       orient="auto"
       refY="0"
       refX="0"
       id="Arrow1Lstart"
       style="overflow:visible">
      <path
         id="path3809"
         d="M 0,0 5,-5 -12.5,0 5,5 0,0 z"
         style="fill-rule:evenodd;stroke:#000000;stroke-width:1pt;marker-start:none"
         transform="matrix(0.8,0,0,0.8,10,0)"
         inkscape:connector-curvature="0" />
    </marker>
  </defs>
  <sodipodi:namedview
     id="base"
     pagecolor="#ffffff"
     bordercolor="#666666"
     borderopacity="1.0"
     inkscape:pageopacity="0.0"
     inkscape:pageshadow="2"
     inkscape:zoom="3"
     inkscape:cx="-54.538467"
     inkscape:cy="60.645983"
     inkscape:document-units="px"
     inkscape:current-layer="layer1"
     showgrid="false"
     inkscape:window-width="1366"
     inkscape:window-height="712"
     inkscape:window-x="0"
     inkscape:window-y="26"
     inkscape:window-maximized="1" />
  <metadata
     id="metadata3003">
    <rdf:RDF>
      <cc:Work
         rdf:about="">
        <dc:format>image/svg+xml</dc:format>
        <dc:type
           rdf:resource="http://purl.org/dc/dcmitype/StillImage" />
        <dc:title></dc:title>
      </cc:Work>
    </rdf:RDF>
  </metadata>
  <g
     inkscape:label="Layer 1"
     inkscape:groupmode="layer"
     id="layer1"
     transform="translate(0,-952.36218)">
    <rect
       style="fill:#000080;fill-opacity:0;stroke:#9d740f;stroke-width:5.06285381000000001;stroke-linejoin:round;stroke-miterlimit:4;stroke-opacity:1;stroke-dasharray:none"
       id="rect3006"
       width="94.937141"
       height="94.937149"
       x="2.5314269"
       y="954.89362" />
    <path
       inkscape:connector-curvature="0"
       id="path5247"
       style="font-size:40px;font-style:normal;font-weight:normal;line-height:125%;letter-spacing:0px;word-spacing:0px;fill:#3333cc;fill-opacity:1;stroke:none;font-family:Sans;-inkscape-font-specification:PT Sans Bold"
       d="m 28.352343,984.86218 6.5,0 13.2,0 -1.3,6.1 -13.2,0 -1.75,8.15 12.05,0 -1.35,6.10002 -11.95,0 -1.85,8.55 13.45,0 -1.25,6.1 -13.45,0 -6.5,0 7.4,-35.00002" />
    <path
       inkscape:connector-curvature="0"
       id="path5249"
       style="font-size:40px;font-style:normal;font-weight:normal;line-height:125%;letter-spacing:0px;word-spacing:0px;fill:#9d740f;fill-opacity:1;stroke:none;font-family:Sans;-inkscape-font-specification:PT Sans Bold"
       d="m 58.497655,1001.5622 -1.65,-5.60002 -0.25,0 -0.45,5.60002 -3.85,18.3 -6.15,0 7.5,-35.25002 4.5,0 8.6,18.70002 1.55,5.45 0.3,0 0.35,-5.45 3.95,-18.45002 6.15,0 -7.5,35.25002 -4.5,0 -8.55,-18.55" />
  </g>
</svg>
