<?xml version="1.0" encoding="UTF-8" standalone="no"?>
<!-- Created with Inkscape (http://www.inkscape.org/) -->

<svg
   xmlns:dc="http://purl.org/dc/elements/1.1/"
   xmlns:cc="http://creativecommons.org/ns#"
   xmlns:rdf="http://www.w3.org/1999/02/22-rdf-syntax-ns#"
   xmlns:svg="http://www.w3.org/2000/svg"
   xmlns="http://www.w3.org/2000/svg"
   xmlns:sodipodi="http://sodipodi.sourceforge.net/DTD/sodipodi-0.dtd"
   xmlns:inkscape="http://www.inkscape.org/namespaces/inkscape"
   width="100"
   height="100"
   id="svg2998"
   version="1.1"
   inkscape:version="0.48.1 r9760"
   sodipodi:docname="eurocity.svg">
  <defs
     id="defs3000">
    <marker
       inkscape:stockid="Arrow1Lstart"
       orient="auto"
       refY="0"
       refX="0"
       id="Arrow1Lstart"
       style="overflow:visible">
      <path
         id="path3809"
         d="M 0,0 5,-5 -12.5,0 5,5 0,0 z"
         style="fill-rule:evenodd;stroke:#000000;stroke-width:1pt;marker-start:none"
         transform="matrix(0.8,0,0,0.8,10,0)"
         inkscape:connector-curvature="0" />
    </marker>
  </defs>
  <sodipodi:namedview
     id="base"
     pagecolor="#ffffff"
     bordercolor="#666666"
     borderopacity="1.0"
     inkscape:pageopacity="0.0"
     inkscape:pageshadow="2"
     inkscape:zoom="3"
     inkscape:cx="-54.538467"
     inkscape:cy="60.645983"
     inkscape:document-units="px"
     inkscape:current-layer="layer1"
     showgrid="false"
     inkscape:window-width="1366"
     inkscape:window-height="712"
     inkscape:window-x="0"
     inkscape:window-y="26"
     inkscape:window-maximized="1" />
  <metadata
     id="metadata3003">
    <rdf:RDF>
      <cc:Work
         rdf:about="">
        <dc:format>image/svg+xml</dc:format>
        <dc:type
           rdf:resource="http://purl.org/dc/dcmitype/StillImage" />
        <dc:title></dc:title>
      </cc:Work>
    </rdf:RDF>
  </metadata>
  <g
     inkscape:label="Layer 1"
     inkscape:groupmode="layer"
     id="layer1"
     transform="translate(0,-952.36218)">
    <rect
       style="fill:#000080;fill-opacity:0;stroke:#9d740f;stroke-width:5.06285381000000001;stroke-linejoin:round;stroke-miterlimit:4;stroke-opacity:1;stroke-dasharray:none"
       id="rect3006"
       width="94.937141"
       height="94.937149"
       x="2.5314269"
       y="954.89362" />
    <path
       inkscape:connector-curvature="0"
       id="path5273"
       style="font-size:40px;font-style:normal;font-weight:normal;line-height:125%;letter-spacing:0px;word-spacing:0px;fill:#3333cc;fill-opacity:1;stroke:none;font-family:Sans;-inkscape-font-specification:PT Sans Bold"
       d="m 30.177344,984.86218 6.5,0 13.2,0 -1.3,6.1 -13.2,0 -1.75,8.15 12.05,0 -1.35,6.10002 -11.95,0 -1.85,8.55 13.45,0 -1.25,6.1 -13.45,0 -6.5,0 7.4,-35.00002" />
    <path
       inkscape:connector-curvature="0"
       id="path5275"
       style="font-size:40px;font-style:normal;font-weight:normal;line-height:125%;letter-spacing:0px;word-spacing:0px;fill:#9d740f;fill-opacity:1;stroke:none;font-family:Sans;-inkscape-font-specification:PT Sans Bold"
       d="m 71.122656,1018.4122 c -2.233355,1.4333 -4.966686,2.15 -8.2,2.15 -2.200014,0 -4.116678,-0.3667 -5.75,-1.1 -1.633342,-0.7333 -3.000007,-1.75 -4.1,-3.05 -1.066671,-1.3 -1.866671,-2.8167 -2.4,-4.55 -0.533336,-1.7333 -0.800003,-3.6 -0.8,-5.6 -3e-6,-3.9333 0.549997,-7.28333 1.65,-10.05002 1.099995,-2.79997 2.549993,-5.0833 4.35,-6.85 1.79999,-1.79997 3.849987,-3.11663 6.15,-3.95 2.333316,-0.8333 4.716647,-1.24996 7.15,-1.25 1.899976,4e-5 3.516641,0.15004 4.85,0.45 1.366638,0.2667 2.433304,0.58337 3.2,0.95 l -2.55,5.8 c -0.666693,-0.36664 -1.466693,-0.6333 -2.4,-0.8 -0.933357,-0.19997 -2.11669,-0.29997 -3.55,-0.3 -1.70002,3e-5 -3.283352,0.35003 -4.75,1.05 -1.466682,0.70003 -2.733347,1.70003 -3.8,3 -1.066679,1.30003 -1.916678,2.88336 -2.55,4.75 -0.60001,1.86672 -0.900009,3.98332 -0.9,6.35002 -9e-6,2.8333 0.69999,5.05 2.1,6.65 1.43332,1.6 3.333318,2.4 5.7,2.4 1.499981,0 2.733313,-0.15 3.7,-0.45 0.999978,-0.3333 1.93331,-0.7333 2.8,-1.2 l 0.1,5.6" />
  </g>
</svg>
