<?xml version="1.0" encoding="UTF-8" standalone="no"?>
<!-- Created with Inkscape (http://www.inkscape.org/) -->

<svg
   xmlns:dc="http://purl.org/dc/elements/1.1/"
   xmlns:cc="http://creativecommons.org/ns#"
   xmlns:rdf="http://www.w3.org/1999/02/22-rdf-syntax-ns#"
   xmlns:svg="http://www.w3.org/2000/svg"
   xmlns="http://www.w3.org/2000/svg"
   xmlns:sodipodi="http://sodipodi.sourceforge.net/DTD/sodipodi-0.dtd"
   xmlns:inkscape="http://www.inkscape.org/namespaces/inkscape"
   width="100"
   height="100"
   id="svg2998"
   version="1.1"
   inkscape:version="0.48.1 r9760"
   sodipodi:docname="kdolnoslaskie.svg">
  <defs
     id="defs3000">
    <marker
       inkscape:stockid="Arrow1Lstart"
       orient="auto"
       refY="0"
       refX="0"
       id="Arrow1Lstart"
       style="overflow:visible">
      <path
         id="path3809"
         d="M 0,0 5,-5 -12.5,0 5,5 0,0 z"
         style="fill-rule:evenodd;stroke:#000000;stroke-width:1pt;marker-start:none"
         transform="matrix(0.8,0,0,0.8,10,0)"
         inkscape:connector-curvature="0" />
    </marker>
  </defs>
  <sodipodi:namedview
     id="base"
     pagecolor="#ffffff"
     bordercolor="#666666"
     borderopacity="1.0"
     inkscape:pageopacity="0.0"
     inkscape:pageshadow="2"
     inkscape:zoom="3"
     inkscape:cx="76.286104"
     inkscape:cy="47.31265"
     inkscape:document-units="px"
     inkscape:current-layer="layer1"
     showgrid="false"
     inkscape:window-width="1366"
     inkscape:window-height="712"
     inkscape:window-x="0"
     inkscape:window-y="26"
     inkscape:window-maximized="1" />
  <metadata
     id="metadata3003">
    <rdf:RDF>
      <cc:Work
         rdf:about="">
        <dc:format>image/svg+xml</dc:format>
        <dc:type
           rdf:resource="http://purl.org/dc/dcmitype/StillImage" />
        <dc:title></dc:title>
      </cc:Work>
    </rdf:RDF>
  </metadata>
  <g
     inkscape:label="Layer 1"
     inkscape:groupmode="layer"
     id="layer1"
     transform="translate(0,-952.36218)">
    <rect
       style="fill:#ac214a;fill-opacity:0;stroke:#faba01;stroke-width:5.06285381000000001;stroke-linejoin:round;stroke-miterlimit:4;stroke-opacity:1;stroke-dasharray:none"
       id="rect3006"
       width="94.937141"
       height="94.937149"
       x="2.5314269"
       y="954.89362" />
    <g
       style="font-size:40px;font-style:normal;font-weight:normal;line-height:125%;letter-spacing:0px;word-spacing:0px;fill:#0073ae;fill-opacity:1;stroke:none;font-family:Sans;-inkscape-font-specification:PT Sans Bold"
       id="text3776">
      <path
         d="m 29.446484,1004.8872 -1.8,0 0,14.95 -6.85,0 0,-34.99998 6.85,0 0,15.49998 1.6,-0.69998 9.65,-14.8 7.8,0 -10.2,14.7 -2.7,1.89998 2.8,1.95 11.65,16.45 -8.45,0 -10.35,-14.95"
         style="font-size:50px;font-variant:normal;font-weight:bold;font-stretch:normal;fill:#000000;font-family:PT Sans;-inkscape-font-specification:PT Sans Bold"
         id="path4140" />
      <path
         d="m 51.753515,984.83722 c 0.699997,-0.1 1.483329,-0.1833 2.35,-0.25 0.899994,-0.0666 1.81666,-0.11663 2.75,-0.15 0.933325,-0.0333 1.833324,-0.05 2.7,-0.05 0.899989,-0.0333 1.699988,-0.05 2.4,-0.05 3.099984,3e-5 5.749981,0.43337 7.95,1.3 2.199977,0.8667 3.983308,2.08336 5.35,3.65 1.366639,1.56669 2.366638,3.43336 3,5.6 0.633303,2.16669 0.94997,4.55002 0.95,7.14998 -3e-5,2.3667 -0.30003,4.65 -0.9,6.85 -0.600029,2.2 -1.600028,4.15 -3,5.85 -1.400025,1.7 -3.250023,3.0667 -5.55,4.1 -2.266685,1.0334 -5.083349,1.55 -8.45,1.55 -0.533345,0 -1.250011,-0.017 -2.15,-0.05 -0.866676,-0.033 -1.783342,-0.083 -2.75,-0.15 -0.93334,-0.033 -1.833339,-0.083 -2.7,-0.15 -0.866671,-0.033 -1.51667,-0.083 -1.95,-0.15 l 0,-35.04998 m 10.75,5.6 c -0.733346,3e-5 -1.483345,0.0167 -2.25,0.05 -0.733344,0.0334 -1.283343,0.0834 -1.65,0.15 l 0,23.44998 c 0.133324,0.033 0.34999,0.067 0.65,0.1 0.333323,0 0.683322,0.017 1.05,0.05 0.366655,0 0.716655,0.017 1.05,0.05 0.333321,0 0.58332,0 0.75,0 1.933318,0 3.533317,-0.3333 4.8,-1 1.299981,-0.7 2.316646,-1.6166 3.05,-2.75 0.766645,-1.1333 1.299978,-2.4333 1.6,-3.9 0.299977,-1.5 0.449977,-3.0333 0.45,-4.6 -2.3e-5,-1.3666 -0.133356,-2.73329 -0.4,-4.09998 -0.266689,-1.39998 -0.766689,-2.64998 -1.5,-3.75 -0.70002,-1.09997 -1.666686,-1.99997 -2.9,-2.7 -1.23335,-0.69997 -2.800015,-1.04997 -4.7,-1.05"
         style="font-size:50px;font-variant:normal;font-weight:bold;font-stretch:normal;fill:#000000;font-family:PT Sans;-inkscape-font-specification:PT Sans Bold"
         id="path4142" />
    </g>
  </g>
</svg>
