<?xml version="1.0" encoding="UTF-8" standalone="no"?>
<!-- Created with Inkscape (http://www.inkscape.org/) -->

<svg
   xmlns:dc="http://purl.org/dc/elements/1.1/"
   xmlns:cc="http://creativecommons.org/ns#"
   xmlns:rdf="http://www.w3.org/1999/02/22-rdf-syntax-ns#"
   xmlns:svg="http://www.w3.org/2000/svg"
   xmlns="http://www.w3.org/2000/svg"
   xmlns:sodipodi="http://sodipodi.sourceforge.net/DTD/sodipodi-0.dtd"
   xmlns:inkscape="http://www.inkscape.org/namespaces/inkscape"
   width="100"
   height="100"
   id="svg2998"
   version="1.1"
   inkscape:version="0.48.1 r9760"
   sodipodi:docname="kslaskie.svg">
  <defs
     id="defs3000">
    <marker
       inkscape:stockid="Arrow1Lstart"
       orient="auto"
       refY="0"
       refX="0"
       id="Arrow1Lstart"
       style="overflow:visible">
      <path
         id="path3809"
         d="M 0,0 5,-5 -12.5,0 5,5 0,0 z"
         style="fill-rule:evenodd;stroke:#000000;stroke-width:1pt;marker-start:none"
         transform="matrix(0.8,0,0,0.8,10,0)"
         inkscape:connector-curvature="0" />
    </marker>
  </defs>
  <sodipodi:namedview
     id="base"
     pagecolor="#ffffff"
     bordercolor="#666666"
     borderopacity="1.0"
     inkscape:pageopacity="0.0"
     inkscape:pageshadow="2"
     inkscape:zoom="3"
     inkscape:cx="71.452771"
     inkscape:cy="73.979316"
     inkscape:document-units="px"
     inkscape:current-layer="layer1"
     showgrid="false"
     inkscape:window-width="1366"
     inkscape:window-height="712"
     inkscape:window-x="0"
     inkscape:window-y="26"
     inkscape:window-maximized="1" />
  <metadata
     id="metadata3003">
    <rdf:RDF>
      <cc:Work
         rdf:about="">
        <dc:format>image/svg+xml</dc:format>
        <dc:type
           rdf:resource="http://purl.org/dc/dcmitype/StillImage" />
        <dc:title></dc:title>
      </cc:Work>
    </rdf:RDF>
  </metadata>
  <g
     inkscape:label="Layer 1"
     inkscape:groupmode="layer"
     id="layer1"
     transform="translate(0,-952.36218)">
    <rect
       style="fill:#ac214a;fill-opacity:0;stroke:#009edc;stroke-width:5.06285381000000001;stroke-linejoin:round;stroke-miterlimit:4;stroke-opacity:1;stroke-dasharray:none"
       id="rect3006"
       width="94.937141"
       height="94.937149"
       x="2.5314269"
       y="954.89362" />
    <g
       style="font-size:40px;font-style:normal;font-weight:normal;line-height:125%;letter-spacing:0px;word-spacing:0px;fill:#003955;fill-opacity:1;stroke:none;font-family:Sans;-inkscape-font-specification:PT Sans Bold"
       id="text3776">
      <path
         d="m 32.196484,1008.8122 -1.8,0 0,14.95 -6.85,0 0,-34.99999 6.85,0 0,15.49999 1.6,-0.7 9.65,-14.79999 7.8,0 -10.2,14.69999 -2.7,1.9 2.8,1.95 11.65,16.45 -8.45,0 -10.35,-14.95"
         style="font-size:50px;font-variant:normal;font-weight:bold;font-stretch:normal;fill:#000000;font-family:PT Sans;-inkscape-font-specification:PT Sans Bold"
         id="path4092" />
      <path
         d="m 69.603515,1014.3622 c -1.8e-5,-1.0666 -0.400017,-1.9333 -1.2,-2.6 -0.766683,-0.6666 -1.750015,-1.2666 -2.95,-1.8 -1.166679,-0.5666 -2.450011,-1.1333 -3.85,-1.7 -1.366675,-0.6 -2.650007,-1.3166 -3.85,-2.15 -1.166672,-0.8666 -2.150004,-1.9333 -2.95,-3.2 -0.766669,-1.2666 -1.150002,-2.8833 -1.15,-4.84999 -2e-6,-1.69998 0.283331,-3.16664 0.85,-4.4 0.566663,-1.26664 1.366663,-2.31664 2.4,-3.15 1.06666,-0.8333 2.316659,-1.44997 3.75,-1.85 1.433323,-0.39997 3.033321,-0.59997 4.8,-0.6 2.033318,3e-5 3.949982,0.18337 5.75,0.55 1.799979,0.33337 3.283311,0.83336 4.45,1.5 l -2.15,5.75 c -0.733354,-0.46664 -1.833353,-0.88331 -3.3,-1.25 -1.466684,-0.39997 -3.050015,-0.59997 -4.75,-0.6 -1.600012,3e-5 -2.833344,0.31669 -3.7,0.95 -0.833343,0.63336 -1.250009,1.48336 -1.25,2.55 -9e-6,1.00002 0.383324,1.83335 1.15,2.49999 0.799989,0.6667 1.783322,1.2834 2.95,1.85 1.199986,0.5667 2.483318,1.15 3.85,1.75 1.399982,0.6 2.683314,1.3334 3.85,2.2 1.199978,0.8334 2.183311,1.8834 2.95,3.15 0.799976,1.2334 1.199975,2.7834 1.2,4.65 -2.5e-5,1.8667 -0.316691,3.4833 -0.95,4.85 -0.600023,1.3333 -1.466689,2.45 -2.6,3.35 -1.10002,0.9 -2.450019,1.5667 -4.05,2 -1.566682,0.4333 -3.300014,0.65 -5.2,0.65 -2.500009,0 -4.700007,-0.2333 -6.6,-0.7 -1.900003,-0.4667 -3.300002,-0.9333 -4.2,-1.4 l 2.2,-5.85 c 0.366663,0.2 0.833329,0.4167 1.4,0.65 0.599995,0.2333 1.266661,0.45 2,0.65 0.733326,0.2 1.499992,0.3667 2.3,0.5 0.833323,0.1333 1.683323,0.2 2.55,0.2 2.03332,0 3.583318,-0.3333 4.65,-1 1.099983,-0.7 1.649982,-1.75 1.65,-3.15 m -3,-34.09999 7.95,0 0,1.5 -8,4.4 -5.15,0 5.2,-5.9"
         style="font-size:50px;font-variant:normal;font-weight:bold;font-stretch:normal;fill:#000000;font-family:PT Sans;-inkscape-font-specification:PT Sans Bold"
         id="path4094" />
    </g>
  </g>
</svg>
