<?xml version="1.0" encoding="UTF-8" standalone="no"?>
<!-- Created with Inkscape (http://www.inkscape.org/) -->

<svg
   xmlns:dc="http://purl.org/dc/elements/1.1/"
   xmlns:cc="http://creativecommons.org/ns#"
   xmlns:rdf="http://www.w3.org/1999/02/22-rdf-syntax-ns#"
   xmlns:svg="http://www.w3.org/2000/svg"
   xmlns="http://www.w3.org/2000/svg"
   xmlns:sodipodi="http://sodipodi.sourceforge.net/DTD/sodipodi-0.dtd"
   xmlns:inkscape="http://www.inkscape.org/namespaces/inkscape"
   width="100"
   height="100"
   id="svg2998"
   version="1.1"
   inkscape:version="0.48.1 r9760"
   sodipodi:docname="kwielkopolskie.svg">
  <defs
     id="defs3000">
    <marker
       inkscape:stockid="Arrow1Lstart"
       orient="auto"
       refY="0"
       refX="0"
       id="Arrow1Lstart"
       style="overflow:visible">
      <path
         id="path3809"
         d="M 0,0 5,-5 -12.5,0 5,5 0,0 z"
         style="fill-rule:evenodd;stroke:#000000;stroke-width:1pt;marker-start:none"
         transform="matrix(0.8,0,0,0.8,10,0)"
         inkscape:connector-curvature="0" />
    </marker>
  </defs>
  <sodipodi:namedview
     id="base"
     pagecolor="#ffffff"
     bordercolor="#666666"
     borderopacity="1.0"
     inkscape:pageopacity="0.0"
     inkscape:pageshadow="2"
     inkscape:zoom="3"
     inkscape:cx="71.452771"
     inkscape:cy="47.31265"
     inkscape:document-units="px"
     inkscape:current-layer="layer1"
     showgrid="false"
     inkscape:window-width="1366"
     inkscape:window-height="712"
     inkscape:window-x="0"
     inkscape:window-y="26"
     inkscape:window-maximized="1" />
  <metadata
     id="metadata3003">
    <rdf:RDF>
      <cc:Work
         rdf:about="">
        <dc:format>image/svg+xml</dc:format>
        <dc:type
           rdf:resource="http://purl.org/dc/dcmitype/StillImage" />
        <dc:title></dc:title>
      </cc:Work>
    </rdf:RDF>
  </metadata>
  <g
     inkscape:label="Layer 1"
     inkscape:groupmode="layer"
     id="layer1"
     transform="translate(0,-952.36218)">
    <rect
       style="fill:#ac214a;fill-opacity:0;stroke:#9d0a0e;stroke-width:5.06285381000000001;stroke-linejoin:round;stroke-miterlimit:4;stroke-opacity:1;stroke-dasharray:none"
       id="rect3006"
       width="94.937141"
       height="94.937149"
       x="2.5314269"
       y="954.89362" />
    <g
       style="font-size:40px;font-style:normal;font-weight:normal;line-height:125%;letter-spacing:0px;word-spacing:0px;fill:#0073ae;fill-opacity:1;stroke:none;font-family:Sans;-inkscape-font-specification:PT Sans Bold"
       id="text3776">
      <path
         d="m 23.853906,1004.7872 -1.8,0 0,14.95 -6.85,0 0,-35.00002 6.85,0 0,15.50002 1.6,-0.70002 9.65,-14.8 7.8,0 -10.2,14.7 -2.7,1.90002 2.8,1.95 11.65,16.45 -8.45,0 -10.35,-14.95"
         style="font-size:50px;font-variant:normal;font-weight:bold;font-stretch:normal;fill:#0073ae;font-family:PT Sans;-inkscape-font-specification:PT Sans Bold"
         id="path4068" />
      <path
         d="m 53.796094,1004.2872 0.65,6.2 0.2,0 0.7,-6.3 6.1,-19.45002 4.5,0 6,19.55002 0.7,6.2 0.2,0 0.75,-6.3 4.25,-19.45002 6.95,0 -9.65,35.25002 -4.6,0 -6.25,-19.45 -0.85,-5.35002 -0.25,0 -0.85,5.40002 -6.2,19.4 -4.85,0 -9.6,-35.25002 7.45,0 4.65,19.55002"
         style="font-size:50px;font-variant:normal;font-weight:bold;font-stretch:normal;fill:#0073ae;font-family:PT Sans;-inkscape-font-specification:PT Sans Bold"
         id="path4070" />
    </g>
  </g>
</svg>
